<?xml version="1.0" encoding="utf-8"?>

<?xml-stylesheet type="text/css" href="../css/svg.css"?>
<!-- 위의 코드를 svg 태그 전에 작성한다. 자신이 만들어 놓은 style.css의 경로에 주의  -->
<svg version="1.1" class="batteryicon" xmlns="http://www.w3.org/2000/svg" xmlns:xlink="http://www.w3.org/1999/xlink" height="14px" x="0px" y="0px" viewBox="0 0 115.33 53.12" style="enable-background:new 0 0 115.33 53.12;" xml:space="preserve">

<g id="Regular-S" transform="matrix(1 0 0 1 1382.41 696)">
	<path class="battery-st0" d="M-1361.56-642.88h60.6c3.16,0,6.14-0.26,8.96-0.78c2.82-0.52,5.25-1.81,7.3-3.86
		c2.05-2.08,3.33-4.52,3.83-7.32c0.5-2.8,0.76-5.76,0.76-8.89v-11.43c0-3.12-0.25-6.09-0.76-8.89c-0.5-2.8-1.78-5.22-3.83-7.28
		c-2.05-2.08-4.48-3.39-7.3-3.91c-2.82-0.52-5.8-0.78-8.96-0.78h-60.6c-3.12,0-6.1,0.26-8.91,0.78c-2.82,0.52-5.27,1.82-7.35,3.91
		c-2.05,2.05-3.33,4.48-3.83,7.28c-0.5,2.8-0.76,5.76-0.76,8.89v11.43c0,3.12,0.25,6.09,0.76,8.89c0.5,2.8,1.78,5.24,3.83,7.32
		c2.08,2.05,4.53,3.34,7.35,3.86C-1367.66-643.14-1364.69-642.88-1361.56-642.88z M-1362.63-649.91c-1.79,0-3.63-0.17-5.52-0.51
		c-1.89-0.34-3.4-1.08-4.54-2.22c-1.14-1.17-1.87-2.69-2.2-4.54c-0.33-1.86-0.49-3.68-0.49-5.47v-13.53c0-1.79,0.16-3.62,0.49-5.49
		c0.33-1.87,1.06-3.39,2.2-4.57c1.14-1.14,2.65-1.87,4.54-2.2c1.89-0.33,3.74-0.49,5.57-0.49h62.7c1.79,0,3.63,0.16,5.52,0.49
		c1.89,0.33,3.4,1.06,4.54,2.2c1.14,1.17,1.87,2.69,2.2,4.57c0.33,1.87,0.49,3.7,0.49,5.49v13.53c0,1.79-0.16,3.61-0.49,5.47
		s-1.06,3.37-2.2,4.54c-1.14,1.14-2.65,1.88-4.54,2.22c-1.89,0.34-3.73,0.51-5.52,0.51H-1362.63z M-1274.4-659.18
		c1.04-0.07,2.13-0.53,3.27-1.39c1.14-0.86,2.1-2.05,2.88-3.56c0.78-1.51,1.17-3.28,1.17-5.3s-0.39-3.78-1.17-5.3
		c-0.78-1.51-1.74-2.7-2.88-3.56c-1.14-0.86-2.23-1.33-3.27-1.39V-659.18z"/>
	<path class="battery-st1" d="M-1365.08-654.69h47.95c2.05,0,3.48-0.41,4.3-1.22s1.22-2.23,1.22-4.25v-18.55c0-1.04-0.09-1.9-0.27-2.56
		s-0.5-1.23-0.95-1.68c-0.81-0.78-2.25-1.17-4.3-1.17h-47.95c-1.07,0-1.94,0.08-2.59,0.24s-1.22,0.47-1.71,0.93
		c-0.46,0.46-0.77,1.02-0.95,1.68s-0.27,1.54-0.27,2.61v18.51c0,1.04,0.09,1.9,0.27,2.56c0.18,0.67,0.5,1.23,0.95,1.68
		C-1368.56-655.1-1367.13-654.69-1365.08-654.69z"/>
</g>
</svg>
