<?xml version="1.0" encoding="utf-8"?>
<!-- Generator: Adobe Illustrator 26.3.1, SVG Export Plug-In . SVG Version: 6.00 Build 0)  -->
<?xml-stylesheet type="text/css" href="../css/style.css"?>
<svg version="1.1" id="레이어_1" xmlns="http://www.w3.org/2000/svg" xmlns:xlink="http://www.w3.org/1999/xlink" height="14px" x="0px"
	 y="0px" viewBox="0 0 64.65 95.9" style="enable-background:new 0 0 64.65 95.9;" xml:space="preserve">

<g id="Black-S" transform="matrix(1 0 0 1 2891.46 696)">
	<path class="bolt-st0" d="M-2891.46-642.73c0,1.04,0.36,1.9,1.07,2.56c0.72,0.67,1.61,1,2.69,1h24.95l-12.89,33.2
		c-0.68,1.73-0.66,3.12,0.07,4.2s1.77,1.63,3.12,1.66c1.35,0.03,2.61-0.65,3.78-2.05l40.58-48.05c0.85-0.98,1.27-2.03,1.27-3.17
		c0-1.04-0.36-1.9-1.07-2.56c-0.72-0.67-1.61-1-2.69-1h-24.95l12.89-33.2c0.68-1.76,0.66-3.17-0.07-4.22s-1.77-1.6-3.1-1.64
		s-2.6,0.65-3.81,2.05l-40.58,48.05C-2891.04-644.92-2891.46-643.87-2891.46-642.73z"/>
</g>
</svg>
