<?xml version="1.0" encoding="utf-8"?>
<!-- Generator: Adobe Illustrator 26.3.1, SVG Export Plug-In . SVG Version: 6.00 Build 0)  -->
<svg version="1.1" id="Layer_1" xmlns="http://www.w3.org/2000/svg" xmlns:xlink="http://www.w3.org/1999/xlink" x="0px" y="0px"
	 viewBox="0 0 14.5 12.8" style="enable-background:new 0 0 14.5 12.8;" xml:space="preserve">
<style type="text/css">
	.st0{fill:none;stroke:#000000;stroke-linecap:round;stroke-miterlimit:10;}
</style>
<g>
	<path class="st0" d="M10.9,3.3c-0.9-1.2-2.5-2-4.3-2l0,0c-2.9,0-5.2,2-5.2,4.6c0,1.6,1,3.1,2.4,3.9c-0.1,0.3-0.3,1.5-0.3,1.6
		c0,0,0,0.1,0,0.1c0.1,0,0.1,0,0.1,0c0.2,0,1.7-0.9,2-1.1c0.3,0,0.6,0.1,0.9,0.1c2,0,3.8-1,4.7-2.5"/>
	<g>
		<g>
			<line class="st0" x1="10.5" y1="5.5" x2="13.1" y2="5.5"/>
		</g>
		<g>
			<line class="st0" x1="11.8" y1="4.2" x2="11.8" y2="6.7"/>
		</g>
	</g>
</g>
</svg>
