<?xml version="1.0" encoding="utf-8"?>
<!-- Generator: Adobe Illustrator 26.3.1, SVG Export Plug-In . SVG Version: 6.00 Build 0)  -->
<svg version="1.1" id="Layer_1" xmlns="http://www.w3.org/2000/svg" xmlns:xlink="http://www.w3.org/1999/xlink" x="0px" y="0px"
	 viewBox="0 0 82.7 82.5" style="enable-background:new 0 0 82.7 82.5;" xml:space="preserve">
<style type="text/css">
	.st0{fill:#020203;}
</style>
<g id="Regular-S" transform="matrix(1 0 0 1 1401.68 696)">
	<path class="st0" d="M-1364.2-613.5h7.7c1.6,0,2.9-0.4,4.1-1.3s1.9-2.1,2.2-3.5l1.6-7l0.9-0.3l6.1,3.8c1.3,0.8,2.7,1.1,4.1,0.9
		c1.4-0.2,2.7-0.8,3.8-2l5.4-5.3c1.1-1.1,1.7-2.4,1.9-3.8c0.2-1.4-0.1-2.8-1-4.1l-3.8-6.1l0.3-0.7l7-1.6c1.5-0.4,2.6-1.2,3.5-2.3
		c0.9-1.1,1.3-2.5,1.3-4v-7.5c0-1.5-0.4-2.9-1.3-4c-0.9-1.2-2.1-1.9-3.6-2.3l-6.9-1.7l-0.3-0.8l3.8-6.1c0.8-1.3,1.1-2.6,1-4.1
		c-0.2-1.4-0.8-2.7-1.9-3.9l-5.4-5.3c-1.1-1.1-2.3-1.7-3.8-1.9c-1.4-0.2-2.8,0.1-4.1,0.9l-6.1,3.7l-0.9-0.3l-1.6-7
		c-0.4-1.5-1.1-2.6-2.2-3.5c-1.1-0.9-2.5-1.3-4.1-1.3h-7.7c-1.6,0-2.9,0.4-4,1.3c-1.1,0.9-1.9,2.1-2.2,3.5l-1.6,7l-1,0.3l-6.1-3.7
		c-1.3-0.8-2.7-1.1-4.1-0.9c-1.4,0.2-2.7,0.8-3.8,1.9l-5.3,5.3c-1.1,1.1-1.7,2.4-1.9,3.9c-0.2,1.4,0.1,2.8,1,4.1l3.8,6.1l-0.3,0.8
		l-6.9,1.7c-1.5,0.4-2.6,1.1-3.5,2.3c-0.9,1.2-1.3,2.5-1.3,4v7.5c0,1.5,0.4,2.9,1.3,4s2.1,1.9,3.5,2.3l7,1.6l0.3,0.7l-3.8,6.1
		c-0.8,1.3-1.2,2.6-1,4.1c0.2,1.4,0.8,2.7,2,3.8l5.3,5.3c1.1,1.1,2.4,1.8,3.8,2c1.4,0.2,2.8-0.1,4.1-0.9l6.1-3.8l0.9,0.3l1.6,7
		c0.4,1.5,1.1,2.6,2.2,3.5S-1365.8-613.5-1364.2-613.5z M-1363.5-620.3c-0.5,0-0.7-0.2-0.8-0.6l-2.4-9.6c-1.2-0.3-2.4-0.7-3.5-1.2
		c-1.1-0.5-2.1-1-2.9-1.6l-8.4,5.2c-0.3,0.2-0.7,0.2-1-0.1l-4.4-4.4c-0.3-0.3-0.4-0.6-0.1-1l5.1-8.4c-0.5-0.8-0.9-1.8-1.4-2.9
		c-0.5-1.1-0.9-2.3-1.2-3.5l-9.6-2.3c-0.4,0-0.6-0.3-0.6-0.8v-6.2c0-0.5,0.2-0.7,0.6-0.8l9.6-2.3c0.3-1.3,0.7-2.6,1.3-3.7
		c0.5-1.1,1-2.1,1.3-2.8l-5.1-8.3c-0.3-0.4-0.2-0.8,0-1.1l4.4-4.3c0.3-0.3,0.7-0.3,1.1-0.1l8.3,5.1c0.8-0.5,1.9-1,3-1.5
		s2.4-0.9,3.6-1.2l2.3-9.6c0.1-0.4,0.3-0.6,0.8-0.6h6.4c0.5,0,0.7,0.2,0.8,0.6l2.3,9.7c1.3,0.3,2.4,0.7,3.5,1.2s2.1,1,3,1.5l8.4-5.1
		c0.4-0.2,0.7-0.1,1.1,0.1l4.4,4.3c0.3,0.3,0.3,0.7,0,1.1l-5.1,8.3c0.4,0.7,0.8,1.6,1.3,2.8c0.5,1.1,1,2.4,1.2,3.7l9.6,2.3
		c0.4,0.1,0.6,0.4,0.6,0.8v6.2c0,0.5-0.2,0.7-0.6,0.8l-9.7,2.3c-0.3,1.2-0.7,2.4-1.2,3.5c-0.5,1.1-1,2.1-1.5,2.9l5.2,8.4
		c0.2,0.4,0.2,0.8-0.1,1l-4.4,4.4c-0.4,0.3-0.7,0.4-1,0.1l-8.5-5.2c-0.8,0.6-1.8,1.1-2.9,1.6c-1.1,0.5-2.3,0.8-3.5,1.2l-2.3,9.6
		c-0.1,0.4-0.3,0.6-0.8,0.6H-1363.5z M-1360.4-640.1c2.7,0,5.1-0.7,7.3-2c2.2-1.3,4-3.1,5.3-5.3c1.3-2.2,2-4.7,2-7.3
		c0-2.7-0.7-5.1-2-7.3c-1.3-2.2-3.1-3.9-5.3-5.2c-2.2-1.3-4.7-2-7.3-2c-2.7,0-5.1,0.7-7.3,2c-2.2,1.3-4,3.1-5.3,5.2
		c-1.3,2.2-2,4.6-2,7.3c0,2.7,0.7,5.1,2,7.3c1.3,2.2,3.1,4,5.3,5.3C-1365.5-640.8-1363-640.1-1360.4-640.1z M-1360.4-646.9
		c-1.4,0-2.7-0.4-3.9-1.1c-1.2-0.7-2.1-1.7-2.8-2.9c-0.7-1.2-1-2.5-1-3.9c0-1.4,0.3-2.7,1-3.9c0.7-1.2,1.6-2.1,2.8-2.8s2.5-1,3.9-1
		c1.4,0,2.7,0.3,3.9,1s2.1,1.6,2.8,2.8c0.7,1.2,1,2.5,1,3.9c0,1.4-0.3,2.7-1,3.9c-0.7,1.2-1.6,2.1-2.8,2.9
		C-1357.7-647.2-1359-646.9-1360.4-646.9z"/>
</g>
</svg>
