<?xml version="1.0" encoding="utf-8"?>

<svg version="1.1" id="Layer_1" xmlns="http://www.w3.org/2000/svg" xmlns:xlink="http://www.w3.org/1999/xlink" width="14px" x="0px" y="0px"
	 viewBox="0 0 579 579" style="enable-background:new 0 0 579 579;" xml:space="preserve">
<style type="text/css">
	.st0{fill:#FFE812;}
	.st1{font-family:'Linotte-Bold';}
	.st2{font-size:205.4867px;}
</style>
<circle class="st0" cx="289.5" cy="289.5" r="322.2"/>
<g>
	<path d="M289.5,89.9c-103.7,0-187.8,80.7-187.8,180.3c0,64.4,35.2,120.9,88,152.8c-2.9,12.1-11.7,58.8-12.3,63.9
		c0,0-0.4,3.9,1.7,5.4c2.1,1.5,4.5,0.3,4.5,0.3c5.9-1,61.8-35.6,72.6-44.9c10.8,1.9,22,2.8,33.4,2.8c103.7,0,187.8-80.7,187.8-180.3
		C477.3,170.7,393.2,89.9,289.5,89.9L289.5,89.9z"/>
	<text transform="matrix(1 0 0 1 166.1098 337.013)" class="st0 st1 st2">Ch</text>
</g>
</svg>
