<?xml version="1.0" encoding="utf-8"?>
<!-- Generator: Adobe Illustrator 26.3.1, SVG Export Plug-In . SVG Version: 6.00 Build 0)  -->
<svg version="1.1" id="Layer_1" xmlns="http://www.w3.org/2000/svg" xmlns:xlink="http://www.w3.org/1999/xlink" width="14px" x="0px" y="0px"
	 viewBox="0 0 400.7 392.5" style="enable-background:new 0 0 400.7 392.5;" xml:space="preserve">
<style type="text/css">
	.st0{fill:none;stroke:#000000;stroke-width:25;stroke-miterlimit:10;}
</style>
<path class="st0" d="M200.3,12.5C96.6,12.5,12.5,86.1,12.5,176.9c0,58.7,35.2,110.2,88,139.3c-2.9,11-11.7,53.6-12.3,58.3
	c0,0-0.4,3.5,1.7,4.9c2.1,1.3,4.5,0.3,4.5,0.3c5.9-0.9,61.8-32.5,72.6-40.9c10.8,1.7,22,2.6,33.4,2.6
	c103.7,0,187.8-73.6,187.8-164.4C388.2,86.1,304.1,12.5,200.3,12.5L200.3,12.5z"/>
</svg>
