<?xml version="1.0" encoding="utf-8"?>
<!-- Generator: Adobe Illustrator 26.3.1, SVG Export Plug-In . SVG Version: 6.00 Build 0)  -->
<svg version="1.1" id="Layer_1" xmlns="http://www.w3.org/2000/svg" xmlns:xlink="http://www.w3.org/1999/xlink" x="0px" y="0px"
	 viewBox="0 0 15.6 15.6" style="enable-background:new 0 0 15.6 15.6;" xml:space="preserve">
<style type="text/css">
	.st0{fill:#FFE812;}
	.st1{font-family:'Linotte-Bold';}
	.st2{font-size:4.9686px;}
</style>
<path class="st0" d="M1.9,1.9c2.5-2.5,9.2-2.5,11.8,0l0,0c2.5,2.5,2.5,9.2,0,11.8l0,0c-2.5,2.5-9.2,2.5-11.8,0l0,0
	C-0.6,11.2-0.6,4.5,1.9,1.9z"/>
<g>
	<path d="M7.8,3c-2.5,0-4.5,2-4.5,4.4c0,1.6,0.9,2.9,2.1,3.7c-0.1,0.3-0.3,1.4-0.3,1.5c0,0,0,0.1,0,0.1c0.1,0,0.1,0,0.1,0
		c0.1,0,1.5-0.9,1.8-1.1c0.3,0,0.5,0.1,0.8,0.1c2.5,0,4.5-2,4.5-4.4C12.3,4.9,10.3,3,7.8,3L7.8,3z"/>
	<text transform="matrix(1 0 0 1 4.8073 8.9393)" class="st0 st1 st2">Ch</text>
</g>
</svg>
