<?xml version="1.0" encoding="utf-8"?>
<!-- Generator: Adobe Illustrator 26.3.1, SVG Export Plug-In . SVG Version: 6.00 Build 0)  -->
<svg version="1.1" id="Layer_1" xmlns="http://www.w3.org/2000/svg" xmlns:xlink="http://www.w3.org/1999/xlink" x="0px" y="0px"
	 viewBox="0 0 13.1 12.8" style="enable-background:new 0 0 13.1 12.8;" xml:space="preserve">
<g>
	<path d="M6.6,0.9c3.1,0,5.7,2.2,5.7,4.9c0,2.7-2.6,4.9-5.7,4.9c-0.3,0-0.7,0-1-0.1l-0.4-0.1l-0.3,0.2c-0.1,0.1-0.6,0.4-1.1,0.7
		c0-0.2,0.1-0.4,0.1-0.5l0.2-0.7L3.5,9.8C1.9,8.9,0.9,7.4,0.9,5.7C0.9,3.1,3.4,0.9,6.6,0.9 M6.6,0C2.9,0,0,2.6,0,5.7
		c0,2.1,1.2,3.9,3.1,4.9c-0.1,0.4-0.4,1.9-0.4,2c0,0,0,0.1,0.1,0.2c0,0,0.1,0,0.1,0c0,0,0.1,0,0.1,0c0.2,0,2.2-1.1,2.5-1.4
		c0.4,0.1,0.8,0.1,1.2,0.1c3.6,0,6.6-2.6,6.6-5.7C13.1,2.6,10.2,0,6.6,0L6.6,0z"/>
</g>
</svg>
