<?xml version="1.0" encoding="utf-8"?>
<!-- Generator: Adobe Illustrator 26.3.1, SVG Export Plug-In . SVG Version: 6.00 Build 0)  -->
<svg version="1.1" id="Layer_1" xmlns="http://www.w3.org/2000/svg" xmlns:xlink="http://www.w3.org/1999/xlink" x="0px" y="0px"
	 viewBox="0 0 512 512" style="enable-background:new 0 0 512 512;" xml:space="preserve">
<g>
	<path d="M447.1,22c11.5,0,22.1,4.3,30,12.2c7.7,7.7,12,18,12,28.9v287.1c0,11-4.3,21.4-12.2,29.1c-7.9,7.8-18.5,12-29.8,12h-144
		h-7.3l-5.9,4.4l-108.8,81.6v-64v-22h-22h-96c-11.2,0-21.7-4.4-29.7-12.3c-7.9-7.8-12.3-18.1-12.3-28.8V63.1
		c0-11,4.3-21.4,12.2-29.1c7.9-7.8,18.5-12,29.8-12H447.1 M447.1,0h-384c-35.2,0-64,27.8-64,63.1v287.1c0,34.3,28.8,63.1,64,63.1h96
		v84c0,7.1,5.9,12,12.1,12c2.4,0,4.8-0.7,7-2.3l124.9-93.7h144c35.2,0,64-27.9,64-63.1V63.1C511.1,28.8,483.2,0,447.1,0L447.1,0z"/>
</g>
<g>
	<polygon points="390.6,117.6 119.6,117.6 119.6,140.2 390.6,140.2 390.6,117.6 	"/>
</g>
<g>
	<polygon points="390.6,256 119.6,256 119.6,278.6 390.6,278.6 390.6,256 	"/>
</g>
</svg>
