<?xml version="1.0" encoding="utf-8"?>
<!-- Generator: Adobe Illustrator 26.3.1, SVG Export Plug-In . SVG Version: 6.00 Build 0)  -->
<svg version="1.1" id="Layer_1" xmlns="http://www.w3.org/2000/svg" xmlns:xlink="http://www.w3.org/1999/xlink" x="0px" y="0px"
	 viewBox="0 0 60.9 66.1" style="enable-background:new 0 0 60.9 66.1;" xml:space="preserve">
<style type="text/css">
	.st0{fill:none;stroke:#020203;stroke-width:5;stroke-miterlimit:10;}
</style>
<g>
	<path class="st0" d="M56.1,37.9l-0.6,5.3c0,2.8-0.5,5-1.6,6.5c-1.1,1.6-2.4,2.7-3.8,3.4c-1.6,0.7-3.1,1.1-4.4,1.1
		c-2.1,0-3.7-0.5-4.9-1.6c-1.2-1-1.7-2.3-1.7-4.1s0.5-3.2,1.6-4.3C42,43,44,42,46.9,41.4l6-1.3C53.9,39.9,55.4,38.3,56.1,37.9
		 M22.9,44.3L22,49.8c0,2.8-0.5,5-1.6,6.5c-1.1,1.6-2.4,2.7-3.8,3.4c-1.6,0.7-3.1,1.1-4.4,1.1c-2.1,0-3.7-0.5-4.9-1.6
		c-1.2-1-1.7-2.3-1.7-4.1s0.5-3.2,1.6-4.3c1.3-1.2,3.3-2.2,6.2-2.8l6-1.3C20.4,46.4,22.1,44.7,22.9,44.3 M56.4,2.5
		c-0.2,0-0.4,0-0.6,0.1l-31.4,7c-1.6,0.4-2.5,1.3-2.5,2.8l0.2,26.8c0,2.5-1.1,4-3.4,4.4l-6,1.3c-3.4,0.7-6,1.9-7.7,3.6
		c-1.7,1.7-2.5,3.8-2.5,6.4c0,2.6,0.9,4.7,2.7,6.3s4.1,2.4,6.9,2.4c1.8,0,3.6-0.5,5.6-1.4s3.7-2.4,5.1-4.4c1.4-2,2.1-4.8,2.1-8.2
		V28.4c0-1.2,0.2-2.1,0.6-2.6c0.4-0.5,1.2-0.9,2.4-1.2l25.4-5.8c0,0,0.2-0.1,0.5-0.1s0.8,0.1,1.1,0.4c0.6,0.6,0.6,1.8,0.6,1.8
		l0.1,11.9c0,2.5-1.1,4-3.4,4.4l-6,1.3c-3.4,0.7-6,1.9-7.7,3.6c-1.7,1.7-2.5,3.8-2.5,6.4c0,2.6,0.9,4.7,2.7,6.3s4.1,2.4,6.9,2.4
		c1.8,0,3.6-0.5,5.6-1.4s3.7-2.4,5.1-4.4c1.4-2,2.1-4.8,2.1-8.2V16.1V9.9V4.7c0-0.8-0.3-1.4-0.8-1.8C57.4,2.7,56.9,2.5,56.4,2.5
		L56.4,2.5z M26.2,22.2c-0.6,0-1.2-0.5-1.2-1.2v-7.6c0-0.7,0.5-1.3,1.2-1.5l28.1-6.5c0.1,0,0.2,0,0.2,0c0.6,0,1,0.5,1,1v7.7
		c0,0.8-0.5,1.4-1.3,1.6l-27.9,6.4C26.4,22.2,26.3,22.2,26.2,22.2L26.2,22.2z"/>
</g>
</svg>
