<?xml version="1.0" encoding="utf-8"?>
<!-- Generator: Adobe Illustrator 26.3.1, SVG Export Plug-In . SVG Version: 6.00 Build 0)  -->

<svg version="1.1" id="Layer_1" xmlns="http://www.w3.org/2000/svg" xmlns:xlink="http://www.w3.org/1999/xlink" width="14px" x="0px" y="0px"
	 viewBox="0 0 75.4 76.1" style="enable-background:new 0 0 75.4 76.1;" xml:space="preserve">
<style type="text/css">
	.st0{fill:#020203;}
</style>
<g id="Regular-S" transform="matrix(1 0 0 1 1403.36 696)">
	<path class="st0" d="M-1403.4-664.9c0,4.3,0.8,8.3,2.4,12s3.8,7.1,6.7,9.9c2.8,2.8,6.1,5.1,9.9,6.7c3.7,1.6,7.8,2.4,12.1,2.4
		c3.3,0,6.4-0.5,9.4-1.5c3-1,5.7-2.3,8.3-4.1l18.2,18.2c0.5,0.5,1.1,0.8,1.7,1.1c0.6,0.2,1.3,0.3,1.9,0.3c1.4,0,2.6-0.5,3.5-1.4
		c0.9-0.9,1.4-2.1,1.4-3.6c0-0.7-0.1-1.3-0.4-1.9c-0.2-0.6-0.6-1.1-1-1.6l-18.1-18.1c1.9-2.6,3.4-5.4,4.5-8.6
		c1.1-3.1,1.6-6.4,1.6-9.9c0-4.3-0.8-8.3-2.4-12.1c-1.6-3.7-3.8-7-6.7-9.9c-2.8-2.8-6.1-5.1-9.9-6.7s-7.8-2.4-12-2.4
		c-4.3,0-8.3,0.8-12.1,2.4s-7,3.8-9.9,6.7c-2.8,2.8-5.1,6.1-6.7,9.9C-1402.6-673.3-1403.4-669.2-1403.4-664.9z M-1395.8-664.9
		c0-3.3,0.6-6.3,1.8-9.2s2.9-5.3,5.1-7.5c2.2-2.1,4.7-3.8,7.5-5.1s5.9-1.8,9.2-1.8s6.3,0.6,9.1,1.8s5.3,2.9,7.5,5.1
		c2.2,2.1,3.9,4.6,5.1,7.5s1.8,5.9,1.8,9.2s-0.6,6.3-1.8,9.1c-1.2,2.8-2.9,5.3-5.1,7.5c-2.2,2.2-4.7,3.9-7.5,5.1s-5.9,1.8-9.1,1.8
		s-6.3-0.6-9.2-1.8s-5.4-2.9-7.5-5.1c-2.2-2.2-3.8-4.7-5.1-7.5C-1395.2-658.6-1395.8-661.7-1395.8-664.9z"/>
</g>
</svg>
