<?xml version="1.0" encoding="utf-8"?>
<!-- Generator: Adobe Illustrator 26.3.1, SVG Export Plug-In . SVG Version: 6.00 Build 0)  -->
<svg version="1.1" id="Layer_1" xmlns="http://www.w3.org/2000/svg" xmlns:xlink="http://www.w3.org/1999/xlink" x="0px" y="0px"
	 viewBox="0 0 9.5 8.5" style="enable-background:new 0 0 9.5 8.5;" xml:space="preserve">
<style type="text/css">
	.st0{fill:#020203;}
</style>
<g>
	<path class="st0" d="M1.2,3.6c0.4,0,0.7,0.3,0.7,0.7c0,0.4-0.3,0.7-0.7,0.7S0.5,4.6,0.5,4.2C0.5,3.9,0.8,3.6,1.2,3.6 M1.2,3.1
		C0.5,3.1,0,3.6,0,4.2s0.5,1.2,1.2,1.2s1.2-0.5,1.2-1.2S1.9,3.1,1.2,3.1L1.2,3.1z"/>
</g>
<g>
	<path class="st0" d="M8.3,3.6C8.7,3.6,9,3.9,9,4.2c0,0.4-0.3,0.7-0.7,0.7c-0.4,0-0.7-0.3-0.7-0.7C7.6,3.9,7.9,3.6,8.3,3.6 M8.3,3.1
		c-0.7,0-1.2,0.5-1.2,1.2s0.5,1.2,1.2,1.2s1.2-0.5,1.2-1.2S9,3.1,8.3,3.1L8.3,3.1z"/>
</g>
<g>
	<path class="st0" d="M4.8,3.6c0.4,0,0.7,0.3,0.7,0.7c0,0.4-0.3,0.7-0.7,0.7S4.1,4.6,4.1,4.2C4.1,3.9,4.4,3.6,4.8,3.6 M4.8,3.1
		c-0.7,0-1.2,0.5-1.2,1.2s0.5,1.2,1.2,1.2s1.2-0.5,1.2-1.2S5.4,3.1,4.8,3.1L4.8,3.1z"/>
</g>
</svg>
