<?xml version="1.0" encoding="utf-8"?>
<!-- Generator: Adobe Illustrator 26.3.1, SVG Export Plug-In . SVG Version: 6.00 Build 0)  -->
<svg version="1.1" id="Layer_1" xmlns="http://www.w3.org/2000/svg" xmlns:xlink="http://www.w3.org/1999/xlink" x="0px" y="0px"
	 viewBox="0 0 9.5 8.5" style="enable-background:new 0 0 9.5 8.5;" xml:space="preserve">
<style type="text/css">
	.st0{fill:#020203;}
</style>
<g>
	<path class="st0" d="M4.7,3.6c0.4,0,0.7,0.3,0.7,0.7S5.1,4.9,4.7,4.9S4.1,4.6,4.1,4.3S4.4,3.6,4.7,3.6 M4.7,3C4,3,3.5,3.6,3.5,4.3
		s0.6,1.2,1.2,1.2S6,4.9,6,4.3S5.4,3,4.7,3L4.7,3z"/>
</g>
<g>
	<path class="st0" d="M1.2,3.6c0.4,0,0.7,0.3,0.7,0.7S1.6,4.9,1.2,4.9S0.6,4.6,0.6,4.3S0.9,3.6,1.2,3.6 M1.2,3C0.5,3,0,3.6,0,4.3
		s0.6,1.2,1.2,1.2s1.2-0.6,1.2-1.2S1.9,3,1.2,3L1.2,3z"/>
</g>
<g>
	<path class="st0" d="M8.2,3.6c0.4,0,0.7,0.3,0.7,0.7S8.6,4.9,8.2,4.9c-0.4,0-0.7-0.3-0.7-0.7S7.9,3.6,8.2,3.6 M8.2,3
		C7.6,3,7,3.6,7,4.3s0.6,1.2,1.2,1.2s1.2-0.6,1.2-1.2S8.9,3,8.2,3L8.2,3z"/>
</g>
</svg>
