<?xml version="1.0" encoding="utf-8"?>
<!-- Generator: Adobe Illustrator 26.3.1, SVG Export Plug-In . SVG Version: 6.00 Build 0)  -->
<svg version="1.1" id="Layer_1" xmlns="http://www.w3.org/2000/svg" xmlns:xlink="http://www.w3.org/1999/xlink" width="14px" x="0px" y="0px"
	 viewBox="0 0 63.4 61.4" style="enable-background:new 0 0 63.4 61.4;" xml:space="preserve">
<style type="text/css">
	.st0{fill:#020203;}
</style>
<g id="Ultralight-S" transform="matrix(1 0 0 1 518.236 696)">
	<path class="st0" d="M-512.9-634.6h52.8c1.6,0,2.9-0.4,3.8-1.1s1.4-1.7,1.4-2.9c0-2.2-0.7-4.6-2.2-7c-1.5-2.5-3.6-4.8-6.3-6.9
		c-2.8-2.1-6.1-3.9-10-5.2c-3.9-1.3-8.3-2-13.2-2c-4.9,0-9.3,0.7-13.2,2c-3.9,1.3-7.2,3.1-10,5.2c-2.8,2.1-4.9,4.4-6.3,6.9
		c-1.5,2.5-2.2,4.8-2.2,7c0,1.2,0.5,2.2,1.5,2.9C-515.8-635-514.5-634.6-512.9-634.6z M-486.4-666.1c2.8,0,5.3-0.7,7.5-2
		c2.2-1.3,4-3.1,5.3-5.4c1.3-2.3,1.9-4.9,1.9-7.7c0-2.7-0.7-5.1-2-7.4c-1.3-2.2-3.1-4-5.3-5.4c-2.3-1.3-4.7-2-7.5-2
		c-2.8,0-5.3,0.7-7.5,2c-2.3,1.3-4,3.1-5.4,5.4s-2,4.7-1.9,7.4c0,2.9,0.7,5.4,2,7.7c1.3,2.3,3.1,4.1,5.3,5.4
		C-491.7-666.8-489.2-666.1-486.4-666.1z"/>
</g>
</svg>
