<?xml version="1.0" encoding="utf-8"?>
<!-- Generator: Adobe Illustrator 26.3.1, SVG Export Plug-In . SVG Version: 6.00 Build 0)  -->
<svg version="1.1" id="Layer_1" xmlns="http://www.w3.org/2000/svg" xmlns:xlink="http://www.w3.org/1999/xlink" x="0px" y="0px"
	 viewBox="0 0 14 13.6" style="enable-background:new 0 0 14 13.6;" xml:space="preserve">
<style type="text/css">
	.st0{fill:#020203;}
</style>
<g id="Ultralight-S" transform="matrix(1 0 0 1 518.236 696)">
	<path class="st0" d="M-517-682.4h11.7c0.4,0,0.6-0.1,0.8-0.2c0.2-0.2,0.3-0.4,0.3-0.6c0-0.5-0.2-1-0.5-1.5
		c-0.3-0.6-0.8-1.1-1.4-1.5c-0.6-0.5-1.3-0.9-2.2-1.1c-0.9-0.3-1.8-0.4-2.9-0.4s-2.1,0.2-2.9,0.4c-0.9,0.3-1.6,0.7-2.2,1.1
		c-0.6,0.5-1.1,1-1.4,1.5c-0.3,0.6-0.5,1.1-0.5,1.5c0,0.3,0.1,0.5,0.3,0.6C-517.7-682.5-517.4-682.4-517-682.4z M-511.2-689.4
		c0.6,0,1.2-0.2,1.7-0.4s0.9-0.7,1.2-1.2c0.3-0.5,0.4-1.1,0.4-1.7c0-0.6-0.2-1.1-0.4-1.6c-0.3-0.5-0.7-0.9-1.2-1.2
		c-0.5-0.3-1-0.4-1.7-0.4c-0.6,0-1.2,0.2-1.7,0.4c-0.5,0.3-0.9,0.7-1.2,1.2c-0.3,0.5-0.4,1-0.4,1.6c0,0.6,0.2,1.2,0.4,1.7
		c0.3,0.5,0.7,0.9,1.2,1.2C-512.4-689.6-511.8-689.4-511.2-689.4z"/>
</g>
</svg>
