<?xml version="1.0" encoding="utf-8"?>
<!-- Generator: Adobe Illustrator 26.3.1, SVG Export Plug-In . SVG Version: 6.00 Build 0)  -->
<?xml-stylesheet type="text/css" href="../css/svg.css"?>

<svg version="1.1" class="wifi-icon" xmlns="http://www.w3.org/2000/svg" xmlns:xlink="http://www.w3.org/1999/xlink" height="14px" x="0px"
	 y="0px" viewBox="0 0 85.69 61.61" style="enable-background:new 0 0 85.69 61.61;" xml:space="preserve">
<style type="text/css">
	.st0{fill:#2D6FB7;}
</style>
<g id="Ultralight-S" transform="matrix(1 0 0 1 510.593 696)">
	<path class="wifi-st0" d="M-505.74-671.34c0.3,0.3,0.62,0.45,0.98,0.45c0.35,0,0.68-0.17,0.98-0.5c4.66-4.86,10.06-8.59,16.21-11.2
		c6.15-2.6,12.75-3.9,19.8-3.9c7.06,0,13.69,1.28,19.9,3.84c6.21,2.56,11.58,6.31,16.12,11.26c0.3,0.33,0.62,0.49,0.98,0.49
		c0.35,0,0.68-0.15,0.98-0.45l4.52-4.47c0.27-0.27,0.4-0.57,0.4-0.9c0-0.33-0.11-0.65-0.35-0.94c-2.96-3.59-6.7-6.77-11.22-9.53
		c-4.51-2.76-9.46-4.92-14.85-6.48c-5.38-1.56-10.88-2.33-16.47-2.33c-5.57,0-11.06,0.78-16.47,2.33
		c-5.42,1.56-10.38,3.72-14.89,6.48c-4.51,2.76-8.22,5.94-11.13,9.53c-0.23,0.3-0.34,0.61-0.32,0.94c0.02,0.33,0.14,0.63,0.38,0.9
		L-505.74-671.34z M-489.78-655.33c0.27,0.3,0.58,0.45,0.92,0.43c0.34-0.02,0.67-0.21,1.01-0.57c2.4-2.57,5.41-4.65,9.05-6.25
		c3.64-1.6,7.31-2.4,11.03-2.4c3.75,0,7.44,0.8,11.06,2.4c3.62,1.6,6.63,3.69,9.03,6.26c0.33,0.36,0.66,0.55,1,0.57
		s0.65-0.13,0.96-0.43l5.2-5.1c0.23-0.26,0.36-0.55,0.38-0.85c0.02-0.3-0.08-0.59-0.28-0.85c-1.86-2.29-4.22-4.3-7.07-6.03
		c-2.85-1.74-6.02-3.09-9.5-4.06c-3.48-0.97-7.07-1.46-10.78-1.46c-3.67,0-7.24,0.49-10.7,1.46c-3.46,0.97-6.63,2.32-9.5,4.06
		c-2.87,1.74-5.24,3.75-7.1,6.03c-0.23,0.27-0.33,0.55-0.3,0.85s0.17,0.59,0.4,0.85L-489.78-655.33z M-467.78-634.39
		c0.27,0,0.59-0.11,0.94-0.32c0.35-0.21,0.84-0.62,1.47-1.22l8.97-8.67c0.2-0.2,0.32-0.42,0.36-0.67c0.03-0.24-0.05-0.53-0.25-0.85
		c-1.06-1.39-2.64-2.6-4.75-3.64c-2.11-1.04-4.35-1.56-6.72-1.56c-2.35,0-4.59,0.52-6.74,1.57s-3.73,2.26-4.75,3.66
		c-0.2,0.32-0.28,0.6-0.26,0.84c0.02,0.24,0.15,0.46,0.38,0.66l9.01,8.67c0.63,0.6,1.11,1,1.45,1.22
		C-468.36-634.5-468.05-634.39-467.78-634.39z"/>
</g>
</svg>
